<svg width="300" height="300" xmlns="http://www.w3.org/2000/svg" stroke="null" style="vector-effect: non-scaling-stroke;" data-name="Layer 1">
 <title stroke="null" style="vector-effect: non-scaling-stroke;">mic-microphone</title>

 <g stroke="null">
  <title stroke="null">Layer 1</title>
  <path fill="#ffffff" stroke="null" id="svg_1" d="m201.04981,59.82557l0,72.25984c0,61.99605 -97.04944,61.99605 -97.04944,0l0,-72.25984c0,-63.76409 97.04944,-63.76409 97.04944,0zm-36.47392,174.50741l0,49.06873a12.06366,10.76894 0 0 1 -24.1016,0l0,-49.18353a104.71462,93.47627 0 0 1 -32.024,-8.05949a107.08105,95.58873 0 0 1 -30.45495,-18.98916l-0.12861,-0.20665a106.25795,94.85396 0 0 1 -22.84121,-30.37807a104.76607,93.52219 0 0 1 -8.02529,-36.00363a12.01222,10.72302 0 0 1 20.57767,-7.60026l0.25722,0.22962a12.03794,10.74598 0 0 1 3.26671,7.37064a80.43297,71.80061 0 0 0 6.1733,27.69157a82.31068,73.4768 0 0 0 44.31916,39.5397a80.79308,72.12207 0 0 0 62.0674,0a82.02774,73.22423 0 0 0 26.46803,-15.84344l0.20578,-0.16073a82.31068,73.4768 0 0 0 17.54246,-23.46665a80.43297,71.80061 0 0 0 6.07041,-27.76045a12.06366,10.76894 0 0 1 24.1016,0a104.56029,93.3385 0 0 1 -8.02529,35.93475a106.61806,95.17542 0 0 1 -22.96982,30.6536l-0.2315,0.18369a106.33511,94.92284 0 0 1 -30.22345,18.78251a105.10045,93.82069 0 0 1 -32.04972,8.05949l0.02572,0.13777z"/>
 </g>
</svg>