<svg width="300" height="300" xmlns="http://www.w3.org/2000/svg" data-name="Layer 1">
 <title>comment-box</title>

 <g>
  <title>Layer 1</title>
  <path class="cls-1" d="m134.5772,237.59527l-60.87143,58.08533a9.65631,9.60792 0 0 1 -16.84354,-6.37285l0,-51.71248l-32.17141,0a24.8375,24.71302 0 0 1 -24.69082,-24.56708l0,-188.46111a24.88639,24.76167 0 0 1 24.69082,-24.56708l248.44834,0a24.8375,24.71302 0 0 1 24.69082,24.56708l0,188.46111a24.8375,24.71302 0 0 1 -24.69082,24.56708l-138.56196,0zm-67.27638,-148.54569a9.63187,9.58359 0 0 1 0,-19.14286l163.22834,0a9.63187,9.58359 0 1 1 0,19.14286l-163.22834,0zm0,62.14741a9.63187,9.58359 0 0 1 0,-19.14286l133.15932,0a9.63187,9.58359 0 0 1 0,19.14286l-133.15932,0z" fill-rule="evenodd" id="svg_1" stroke="null" fill="#21c7ff"/>
 </g>
</svg>