<svg id="圖層_1" data-name="圖層 1" xmlns="http://www.w3.org/2000/svg" viewBox="0 0 297.83 298.87"><defs><style>.cls-1{fill:#2aae67;fill-rule:evenodd;}</style></defs><path id="svg_1" data-name="svg 1" class="cls-1" d="M134.58,237.6,73.71,295.68a9.66,9.66,0,0,1-16.85-6.37V237.6H24.69A24.78,24.78,0,0,1,0,213V24.57A24.83,24.83,0,0,1,24.69,0H273.14a24.78,24.78,0,0,1,24.69,24.57V213a24.78,24.78,0,0,1-24.69,24.57ZM67.3,89.05a9.58,9.58,0,0,1,0-19.14H230.53a9.58,9.58,0,1,1,1,19.14,7.85,7.85,0,0,1-1,0Zm0,62.15a9.59,9.59,0,0,1,0-19.15H200.46a9.59,9.59,0,0,1,0,19.15Z" transform="translate(0 0)"/></svg>