<svg width="122.88" height="122.88" xmlns="http://www.w3.org/2000/svg" data-name="Layer 1">
 <title>smiling-line</title>

 <g>
  <title>Layer 1</title>
  <path fill="#ffffff" id="svg_1" d="m61.44,0l0,0l0,0a61.4,61.4 0 0 1 61.43,61.42l0,0a61.42,61.42 0 0 1 -61.42,61.43l0,0a61.4,61.4 0 0 1 -61.45,-61.4l0,0a61.39,61.39 0 0 1 61.44,-61.45l0,0zm-28.27,41.06a3.34,3.34 0 0 1 -5.17,-4.22a12.83,12.83 0 0 1 1.8,-1.84a19.51,19.51 0 0 1 11.11,-4a17.91,17.91 0 0 1 12.34,3.74a15.81,15.81 0 0 1 2.25,2.26a3.35,3.35 0 1 1 -5.18,4.25a8.23,8.23 0 0 0 -1.32,-1.25a11.37,11.37 0 0 0 -7.79,-2.26a12.73,12.73 0 0 0 -7.21,2.48a5.87,5.87 0 0 0 -0.87,0.84l0.04,0zm40.8,0a3.34,3.34 0 0 1 -5.18,-4.22a12.76,12.76 0 0 1 1.8,-1.8a19.56,19.56 0 0 1 11.11,-4.04a17.92,17.92 0 0 1 12.35,3.74a16.35,16.35 0 0 1 2.25,2.26a3.35,3.35 0 1 1 -5.18,4.25a8.68,8.68 0 0 0 -1.28,-1.25a11.38,11.38 0 0 0 -7.84,-2.3a12.75,12.75 0 0 0 -7.21,2.52a6.28,6.28 0 0 0 -0.86,0.84l0.04,0zm-47.48,34.27a3.34,3.34 0 1 1 5.86,-3.19a32.49,32.49 0 0 0 15.84,14.2a38.09,38.09 0 0 0 16.15,3.07a34.41,34.41 0 0 0 15.38,-4a27.12,27.12 0 0 0 12.1,-13.15a3.34,3.34 0 0 1 6.18,2.62a33.74,33.74 0 0 1 -15,16.37a41,41 0 0 1 -18.39,4.83a44.81,44.81 0 0 1 -19,-3.61a39.08,39.08 0 0 1 -19,-17.14l-0.12,0zm35,-67.5l0,0a53.64,53.64 0 0 0 -53.66,53.61l0,0a53.65,53.65 0 0 0 53.61,53.61l0,0l0,0l0,0a53.65,53.65 0 0 0 53.6,-53.62l0,0a53.64,53.64 0 0 0 -53.6,-53.6l0.05,0z"/>
 </g>
</svg>