<svg width="512" height="437.33" xmlns="http://www.w3.org/2000/svg" clip-rule="evenodd" fill-rule="evenodd" image-rendering="optimizeQuality" text-rendering="geometricPrecision" shape-rendering="geometricPrecision">

 <g>
  <title>Layer 1</title>
  <path fill="#ffffff" stroke="null" id="svg_1" d="m134.59891,369.2515l59.2632,-54.36962c2.6043,-2.39841 5.95898,-3.58917 9.31367,-3.58917l58.64523,-0.01689c-10.58492,4.98262 -19.50133,12.47343 -26.09594,25.76603l-27.1818,0l-77.405,71.02338c-2.47188,2.60954 -6.04727,4.26478 -10.01992,4.26478c-7.44211,0 -13.48055,-5.77646 -13.48055,-12.89568l0,-62.39248l-39.93844,0c-9.00469,0 -17.1707,-3.54695 -23.06789,-9.19673c-5.94133,-5.68356 -9.63148,-13.52907 -9.63148,-22.09241l0,-231.46358c0,-8.54645 3.72547,-16.38351 9.65797,-22.05018c5.92367,-5.67511 14.11617,-9.23895 23.04141,-9.23895l306.61844,0c8.92523,0 17.14422,3.5385 23.08555,9.22206c5.90602,5.64978 9.61383,13.46151 9.61383,22.06707l0,79.55294c-8.63391,-5.81868 -17.65625,-9.33185 -26.96109,-10.82663l0,-68.72631c0,-1.46945 -0.66211,-2.83756 -1.71266,-3.84253c-1.0682,-1.02186 -2.50719,-1.65524 -4.02562,-1.65524l-306.61844,0c-1.49195,0 -2.91328,0.65027 -3.99031,1.67213c-1.0682,1.0303 -1.74797,2.38997 -1.74797,3.82563l0,231.46358c0,1.46945 0.66211,2.846 1.72148,3.86786c1.05055,1.00497 2.4807,1.62991 4.0168,1.62991l53.41898,0c7.44211,0 13.48055,5.77646 13.48055,12.89568l0,45.10533zm125.86258,15.20964c-1.87156,0 -3.39,-1.45256 -3.39,-3.24292c0,-0.92896 0.13242,-1.84103 0.37078,-2.74466c5.43813,-41.23747 24.48922,-41.95531 48.45758,-47.95134c7.15961,-1.78192 20.23406,-5.59911 27.84391,-11.97517c4.18453,-3.52161 6.72703,-7.82017 5.7118,-12.99702c-5.79125,-5.12618 -10.24945,-10.68306 -11.25586,-21.27323l-0.68859,0.00845c-1.60672,-0.01689 -3.16047,-0.36314 -4.60828,-1.14854c-3.19578,-1.73969 -4.95258,-5.07551 -5.79125,-8.87581c-1.00641,-4.53502 -2.21586,-17.5236 4.24633,-20.11625l0.05297,-0.01689c-0.80336,-14.31446 1.73031,-36.98114 -13.63945,-41.43171c30.33344,-35.86638 65.31047,-55.37459 91.57414,-23.46896c29.25641,1.46945 42.30438,42.72381 24.13609,64.91756l-0.76805,0c6.46219,2.59265 5.24391,15.58123 4.24633,20.11625c-0.8475,3.8003 -2.59547,7.13612 -5.79125,8.87581c-1.44781,0.7854 -3.00156,1.13164 -4.60828,1.14854l-0.68859,-0.00845c-1.00641,10.59017 -5.46461,16.14705 -11.25586,21.27323c-1.01523,5.17685 1.52727,9.47541 5.7118,12.99702c7.60984,6.37606 20.67547,10.19325 27.84391,11.97517c23.96836,5.99603 43.01945,6.71386 48.45758,47.95134c0.23836,0.90363 0.37078,1.8157 0.37078,2.74466c0,1.79036 -1.51844,3.24292 -3.39,3.24292l-223.14852,0zm-132.93391,-225.48445c-7.44211,0 -13.48055,-5.77646 -13.48055,-12.89568s6.03844,-12.89568 13.48055,-12.89568l183.73094,0c7.45094,0 13.48055,5.77646 13.48055,12.89568s-6.02961,12.89568 -13.48055,12.89568l-183.73094,0zm0.00883,76.33535c-7.44211,0 -13.48055,-5.76801 -13.48055,-12.89568c0,-7.11923 6.03844,-12.88724 13.48055,-12.88724l125.16516,0c7.44211,0 13.48055,5.76801 13.48055,12.88724c0,7.12767 -6.03844,12.89568 -13.48055,12.89568l-125.16516,0z" fill-rule="nonzero"/>
 </g>
</svg>