<?xml version="1.0" standalone="no"?><!DOCTYPE svg PUBLIC "-//W3C//DTD SVG 1.1//EN" "http://www.w3.org/Graphics/SVG/1.1/DTD/svg11.dtd"><svg t="1720146235642" class="icon" viewBox="0 0 1024 1024" version="1.1" xmlns="http://www.w3.org/2000/svg" p-id="4244" xmlns:xlink="http://www.w3.org/1999/xlink" width="32" height="32"><path d="M512 0C229.888 0 0 229.888 0 512s229.888 512 512 512 512-229.888 512-512S794.112 0 512 0z m0 915.968c-222.72 0-403.968-181.248-403.968-403.968S289.28 108.032 512 108.032s403.968 181.248 403.968 403.968-181.248 403.968-403.968 403.968z" fill="#ffffff" p-id="4245"></path><path d="M697.856 371.712c0-12.288-4.608-23.552-13.312-32.256-17.92-17.92-46.592-17.92-64.512 0L512 447.488 403.968 339.456c-17.92-17.92-46.592-17.92-64.512 0-8.704 8.704-13.312 19.968-13.312 32.256s4.608 23.552 13.312 32.256L447.488 512l-108.032 108.032c-8.704 8.704-13.312 19.968-13.312 32.256s4.608 23.552 13.312 32.256c8.704 8.704 19.968 13.312 32.256 13.312s23.552-4.608 32.256-13.312l108.032-108.032 108.032 108.032c8.704 8.704 19.968 13.312 32.256 13.312s23.552-4.608 32.256-13.312c8.704-8.704 13.312-19.968 13.312-32.256s-4.608-23.552-13.312-32.256L576.512 512l108.032-108.032c8.704-8.704 13.312-19.968 13.312-32.256z" fill="#ffffff" p-id="4246"></path></svg>