<svg width="512" height="512" xmlns="http://www.w3.org/2000/svg" clip-rule="evenodd" fill-rule="evenodd" image-rendering="optimizeQuality" text-rendering="geometricPrecision" shape-rendering="geometricPrecision">

 <g>
  <title>Layer 1</title>
  <path fill="#ffffff" id="svg_1" d="m189.759,8.784c136.533,-36.583 276.872,44.442 313.456,180.974c36.585,136.534 -44.441,276.873 -180.974,313.457s-276.872,-44.442 -313.456,-180.974c-36.585,-136.533 44.441,-276.873 180.974,-313.457zm-70.568,286.816c69.524,90.131 212.547,88.174 274.078,-0.172l10.027,9.973c-68.927,116.97 -214.851,121.104 -294.594,0.63l10.489,-10.431zm71.566,-161.137c17.913,0 32.433,21.028 32.433,46.965c0,25.939 -14.52,46.965 -32.433,46.965s-32.434,-21.026 -32.434,-46.965c0,-25.937 14.521,-46.965 32.434,-46.965zm130.487,0c17.912,0 32.433,21.028 32.433,46.965c0,25.939 -14.521,46.965 -32.433,46.965c-17.913,0 -32.434,-21.026 -32.434,-46.965c0,-25.937 14.521,-46.965 32.434,-46.965z"/>
 </g>
</svg>